<?xml version="1.0" encoding="utf-8"?>
<!-- Generator: Adobe Illustrator 22.0.1, SVG Export Plug-In . SVG Version: 6.00 Build 0)  -->
<svg version="1.1" id="Layer_1" xmlns="http://www.w3.org/2000/svg" xmlns:xlink="http://www.w3.org/1999/xlink" x="0px" y="0px"
	 viewBox="0 0 283.5 283.5" style="enable-background:new 0 0 283.5 283.5;" xml:space="preserve">
<style type="text/css">
	.st0{fill:#9A9495;}
	.st1{fill:#3D3839;}
	.st2{fill:none;stroke:#000000;stroke-miterlimit:10;}
	.st3{fill:#DEB8AC;}
	.st4{fill:#B3B3B3;}
	.st5{fill:#848484;}
	.st6{fill:#A09F9F;}
	.st7{fill:#C1C1BF;}
	.st8{fill:#D2D2D1;}
	.st9{fill:#686867;}
	.st10{fill:#FFFFFF;}
	.st11{fill:#E9E8EB;}
	.st12{fill:#ECEAE9;}
	.st13{fill:#D6D6D6;}
	.st14{fill:#060406;}
	.st15{fill:#2B1F2B;}
	.st16{fill:none;}
	.st17{fill:#221635;}
	.st18{fill:#C47669;}
	.st19{fill:#522D4C;}
	.st20{fill:#4F3552;}
	.st21{fill:#E3A7A0;}
	.st22{fill:#E2A1A6;}
	.st23{fill:#46092D;}
	.st24{fill:#974439;}
	.st25{fill:#9B5C47;}
	.st26{fill:#D49F8E;}
	.st27{fill:#D5A793;}
	.st28{fill:#E6C7B5;}
	.st29{fill:#6A3238;}
	.st30{fill:#4B1E33;}
	.st31{fill:#8C4544;}
	.st32{fill:#0F1B43;}
	.st33{fill:#DCB8A3;}
	.st34{fill:#E5C1B4;}
	.st35{fill:#CCABA0;}
	.st36{fill:#CB8C76;}
	.st37{fill:#AB554B;}
	.st38{fill:#0D1232;}
	.st39{fill:#121212;}
	.st40{fill:#212020;}
	.st41{fill:#DCDBDB;}
	.st42{fill:#AEACAB;}
	.st43{fill:#565555;}
	.st44{fill:#898989;}
</style>
<path class="st14" d="M82.4,113.3c-9.1,0.4-17.9,3.4-26.8,5.5c-13.9,3.4-28.3,4.9-42.6,4.5c28.6,9.7,55.9,23.2,80.9,40.3
	c-9.3,4-19.4,6.4-29.5,6.9c18.1,12.3,35.6,25.6,49.9,42.1s25.3,36.4,28.5,58c3.7-21.6,14.3-41.6,28.4-58.3
	c14.2-16.7,31.9-30.1,50.7-41.3c-10.4-0.3-20.8-2.8-30.2-7.2c25.2-15.8,51.8-29.4,79.4-40.6c-29.4,4.4-59.6-16.3-88-7.2
	c-8.3,2.6-15.6,7.7-21.8,13.7c-3.2,3.1-6.2,6.5-9.1,10c-2.4,3-4.9,8.3-8,10.5c-2.3,1.7-1.4,1.5-3.4-0.7c-1.4-1.6-2.5-3.8-3.7-5.5
	c-2.5-3.4-5.2-6.7-8.2-9.7c-5.9-6-12.7-11.3-20.2-15.1C100.6,115.2,91.5,112.9,82.4,113.3z"/>
<path class="st1" d="M94.4,57.8c-7,0.3-13.8,2.6-20.6,4.3C63.1,64.7,52,65.9,41,65.6c22,7.4,43,17.9,62.2,31
	c-7.2,3.1-14.9,4.9-22.7,5.3c13.9,9.4,27.4,19.7,38.4,32.4c11,12.7,19.4,28,21.9,44.6c2.8-16.6,11-32,21.9-44.8
	c10.9-12.8,24.5-23.1,39-31.7c-8-0.2-16-2.1-23.2-5.5c19.4-12.1,39.9-22.6,61-31.2c-22.6,3.4-45.8-12.5-67.6-5.6
	c-6.4,2-12,5.9-16.8,10.5c-2.5,2.4-4.8,5-7,7.7c-1.9,2.3-3.8,6.4-6.1,8.1c-1.8,1.3-1.1,1.1-2.6-0.6c-1.1-1.2-1.9-2.9-2.9-4.2
	c-1.9-2.6-4-5.1-6.3-7.4c-4.5-4.7-9.7-8.7-15.5-11.6C108.4,59.2,101.4,57.5,94.4,57.8z"/>
<path class="st0" d="M173.4,53C159,63.1,146.5,76.7,141,93.3c-4.3-16.6-18.3-28.9-32.4-38.7C93.9,44.4,78.2,35.6,61.8,28.3
	c7.8,2.1,16-0.5,23.8-2.6c7.1-1.9,14.3-3.4,21.7-3.2c7.3,0.2,14.8,2.2,20.5,6.7c6,4.6,9.7,11.5,13.3,18.1
	c6.8-10,14.8-20.3,26.4-23.8c8.3-2.5,16.9-1.1,25.2,0.8c8.7,2,17.1,3.6,26,4.6c-1.2,2.6-7.3,4-10,5.1c-4.1,1.8-8.2,3.7-12.3,5.6
	C188.4,43.6,180.6,47.9,173.4,53z"/>
</svg>
