<?xml version="1.0" encoding="utf-8"?>
<!-- Generator: Adobe Illustrator 22.0.1, SVG Export Plug-In . SVG Version: 6.00 Build 0)  -->
<svg version="1.1" id="Layer_1" xmlns="http://www.w3.org/2000/svg" xmlns:xlink="http://www.w3.org/1999/xlink" x="0px" y="0px"
	 viewBox="0 0 283.5 283.5" style="enable-background:new 0 0 283.5 283.5;" xml:space="preserve">
<style type="text/css">
	.st0{fill:#9A9495;}
	.st1{fill:#3D3839;}
	.st2{fill:none;stroke:#000000;stroke-miterlimit:10;}
	.st3{fill:#DEB8AC;}
	.st4{fill:#B3B3B3;}
	.st5{fill:#848484;}
	.st6{fill:#A09F9F;}
	.st7{fill:#C1C1BF;}
	.st8{fill:#D2D2D1;}
	.st9{fill:#686867;}
	.st10{fill:#FFFFFF;}
	.st11{fill:#E9E8EB;}
	.st12{fill:#ECEAE9;}
	.st13{fill:#D6D6D6;}
	.st14{fill:#060406;}
	.st15{fill:#2B1F2B;}
	.st16{fill:none;}
	.st17{fill:#221635;}
	.st18{fill:#C47669;}
	.st19{fill:#522D4C;}
	.st20{fill:#4F3552;}
	.st21{fill:#E3A7A0;}
	.st22{fill:#E2A1A6;}
	.st23{fill:#46092D;}
	.st24{fill:#974439;}
	.st25{fill:#9B5C47;}
	.st26{fill:#D49F8E;}
	.st27{fill:#D5A793;}
	.st28{fill:#E6C7B5;}
	.st29{fill:#6A3238;}
	.st30{fill:#4B1E33;}
	.st31{fill:#8C4544;}
	.st32{fill:#0F1B43;}
	.st33{fill:#DCB8A3;}
	.st34{fill:#E5C1B4;}
	.st35{fill:#CCABA0;}
	.st36{fill:#CB8C76;}
	.st37{fill:#AB554B;}
	.st38{fill:#0D1232;}
	.st39{fill:#121212;}
	.st40{fill:#212020;}
	.st41{fill:#DCDBDB;}
	.st42{fill:#AEACAB;}
	.st43{fill:#565555;}
	.st44{fill:#898989;}
</style>
<path class="st4" d="M94,72.5c3.9,3.2,7.1,6.6,11.4,10.7C86.7,98.7,65.8,114.4,47.1,130c-1.4,1.1-1.9,2.9-3.1,5.1
	c-2.6,4.6-2.1,8.5-1.4,13.7c0.7,5.2,2.3,10.3,2.4,15.5c0.1,2.6-0.2,5.2,0.4,7.7c0.6,2.5,2.5,4.9,5.1,5.1c3.7,0.3,6-3.5,8.4-6.3
	c2.9-3.3,6.7-5.6,10.5-7.7c6.8-3.9,13.7-7.8,21.5-8.8c6.9-0.9,14,0.6,20.8,2c0.1-6.7,4.6-12.5,9-17.6c2.6-3.1,5.2-6.1,7.8-9.2
	c0.3-0.3,0.5-0.6,0.9-0.7c1-0.2,1.4,1.1,1.6,2.1c0.2,1,1,2.2,1.8,1.6c-0.2-3.6-0.3-7.1-0.5-10.7c0-0.8,0-1.7,0.7-2
	c0.6-0.3,1.3,0.2,1.8,0.6c2.1,1.6,4.1,3.2,6.2,4.8c2.4-3.8,3.3-2.4,3.3-6.9c0-7.9-0.4-21.1-0.3-29c0-3.9,0-6.8,0-10.8
	c0-1.6,0.1-5.2,0.1-6.8c0.1-3.3,1.1-3.2-2.9-2.9c-3.1,0.2-8.2,0.7-11.4,1c-3.9,0.3-7.9,0.7-11.8,1C110.4,71.2,101.9,71.8,94,72.5z"
	/>
<path class="st5" d="M194.4,72.5c-3.9,3.2-7.1,6.6-11.4,10.7c18.7,15.6,39.6,31.2,58.3,46.8c1.4,1.1,1.9,2.9,3.1,5.1
	c2.6,4.6,2.1,8.5,1.4,13.7c-0.7,5.2-2.3,10.3-2.4,15.5c-0.1,2.6,0.2,5.2-0.4,7.7s-2.5,4.9-5.1,5.1c-3.7,0.3-6-3.5-8.4-6.3
	c-2.9-3.3-6.7-5.6-10.5-7.7c-6.8-3.9-13.7-7.8-21.5-8.8c-6.9-0.9-14,0.6-20.8,2c-0.1-6.7-4.6-12.5-9-17.6c-2.6-3.1-5.2-6.1-7.8-9.2
	c-0.3-0.3-0.5-0.6-0.9-0.7c-1-0.2-1.4,1.1-1.6,2.1s-1,2.2-1.8,1.6c0.2-3.6,0.3-7.1,0.5-10.7c0-0.8,0-1.7-0.7-2
	c-0.6-0.3-1.3,0.2-1.8,0.6c-2.1,1.6-4.1,3.2-6.2,4.8c-2.4-3.8-3.3-2.4-3.3-6.9c0-7.9,0.4-21.1,0.3-29c0-3.9,0-6.8,0-10.8
	c0-1.6-0.1-5.2-0.1-6.8c-0.1-3.3-1.1-3.2,2.9-2.9c3.1,0.2,8.2,0.7,11.4,1c3.9,0.3,7.9,0.7,11.8,1C178,71.2,186.5,71.8,194.4,72.5z"
	/>
<g>
	<g>
		<path class="st1" d="M43,36.5c2.6,1,5.9,4.1,7.8,6.2c15.6,16.2,31.3,31,46.9,47.2c2.5-2.1,5-4.6,7.5-6.7
			c-12.6-12.4-26-24-39.9-34.8c-3.5-2.7-7-5.4-10.6-8c-5.3-4-10.9-8.1-17.5-9.1c-4.7-0.7-17.2,3.8-17.4,10.2
			c0.7-4.5,6.4-5.4,10.1-6.3C34.5,34,38.2,34.7,43,36.5z"/>
		<path class="st1" d="M245.4,36.5c-2.6,1-5.9,4.1-7.8,6.2c-15.6,16.2-31.3,31-46.9,47.2c-2.5-2.1-5-4.6-7.5-6.7
			c12.6-12.4,26-24,39.9-34.8c3.5-2.7,7-5.4,10.6-8c5.3-4,10.9-8.1,17.5-9.1c4.7-0.7,17.2,3.8,17.4,10.2c-0.7-4.5-6.4-5.4-10.1-6.3
			C253.9,34,250.2,34.7,245.4,36.5z"/>
	</g>
	<g>
		<path class="st1" d="M128,129.6c-8.1,6.5-14,16.8-16.5,26.9c-8.4-2.7-17.6-3.1-26.2-1.1c-1.1,0.3-2.5,1.1-2.1,2.2
			c1.7,0.4,3.4-0.2,5.1-0.7c5.2-1.5,10.8-1.5,16-0.1c3.4,0.9,6.9,2.5,10.4,2c2.8-0.5,5.4-2.4,6.6-5c-1.4,0.9-3.2-1.1-2.8-2.7
			c0.4-1.6,1.9-2.7,3.2-3.7c3.5-2.7,6.4-6.3,8.3-10.2c0.6-1.3,2.4-4,2.2-5.5C131.9,129,129.7,128.3,128,129.6z"/>
		<path class="st1" d="M159.7,129.4c8.1,6.5,15,17,17.5,27.1c8.4-2.7,17.6-3.1,26.2-1.1c1.1,0.3,2.5,1.1,2.1,2.2
			c-1.7,0.4-3.4-0.2-5.1-0.7c-5.2-1.5-10.8-1.5-16-0.1c-3.4,0.9-6.9,2.5-10.4,2c-2.8-0.5-5.4-2.4-6.6-5c1.4,0.9,3.2-1.1,2.8-2.7
			s-1.9-2.7-3.2-3.7c-3.5-2.7-6.4-6.3-8.3-10.2c-0.6-1.3-2.4-4-2.2-5.5C156.7,129,158,128.1,159.7,129.4z"/>
	</g>
</g>
<path class="st6" d="M145,189.7c2.7,0,4.8,2.2,6.4,4.4c3.4,4.6,6.4,9.4,8.9,14.6c0.6,1.2,1.2,2.5,1.1,3.9c0,1.4-0.8,2.8-2.1,3.2
	c0.9,0.7,1.9,1.5,1.8,2.6c0,0.5-0.3,1-0.5,1.4c-3.3,5.9-7.6,11.2-12.6,15.8c-0.7,0.7-1.5,1.4-1.4,2.4c0,0.5,0.3,1,0.5,1.5
	c0.5,1.4-0.1,3-1.3,3.8c2.5,0.5,4.8-1.7,7.3-1.5c2.4,0.1,4.1,2.2,6.4,3c1.1,0.4,2.3,0.4,3.5,0.4c7.9-0.4,13.7-6.8,19.9-11.7
	c3.3-2.6,6.4-5.3,9.3-8.2c0.4-0.4,0.7-0.8,0.7-1.3c0-0.5-0.6-0.9-0.9-1.3c-1.9-1.9-1.1-5-1.9-7.5c-0.7-2.1-2.4-3.7-4.1-5.1
	c-5.7-4.8-11.8-9.9-19.1-11.3c-0.6-0.1-1.3-0.2-1.8-0.6c-1.1-0.8-1-2.4-1.3-3.7c-0.6-2.6-2.8-4.4-4.3-6.6c-2.8-4.3-2.5-9.8-2.1-14.9
	c0.2-2.4,0.4-4.8,1.4-7c0.9-1.8,2.2-3.3,3.6-4.8c1.8-2,3.6-3.9,5.4-5.9c0.7-0.7,1.2-2.1,0.3-2.5c1.8,0.3,2.9-2.1,2.3-3.8
	c-0.6-1.7-2.3-2.7-3.7-3.8c-7.4-5.6-11.4-15.3-10.2-24.5c0.1-0.9,0-2.1-0.8-2.2c-0.4-0.1-0.8,0.2-1.2,0.5c-2.1,1.6-4.1,3.2-6.2,4.7
	c-1-1.1-2.1-2.4-3.1-3.5c0,3.6,0,7.1,0,10.6v58.9L145,189.7z"/>
<path class="st7" d="M144.5,189.7c-2.7,0-4.8,2.2-6.4,4.4c-3.4,4.6-6.4,9.4-8.9,14.6c-0.6,1.2-1.2,2.5-1.1,3.9
	c0,1.4,0.8,2.8,2.1,3.2c-0.9,0.7-1.9,1.5-1.8,2.6c0,0.5,0.3,1,0.5,1.4c3.3,5.9,7.6,11.2,12.6,15.8c0.7,0.7,1.5,1.4,1.4,2.4
	c0,0.5-0.3,1-0.5,1.5c-0.5,1.4,0.1,3,1.3,3.8c-2.5,0.5-4.8-1.7-7.3-1.5c-2.4,0.1-4.1,2.2-6.4,3c-1.1,0.4-2.3,0.4-3.5,0.4
	c-7.9-0.4-13.7-6.8-19.9-11.7c-3.3-2.6-6.4-5.3-9.3-8.2c-0.4-0.4-0.7-0.8-0.7-1.3c0-0.5,0.6-0.9,0.9-1.3c1.9-1.9,1.1-5,1.9-7.5
	c0.7-2.1,2.4-3.7,4.1-5.1c5.7-4.8,11.8-9.9,19.1-11.3c0.6-0.1,1.3-0.2,1.8-0.6c1.1-0.8,1-2.4,1.3-3.7c0.6-2.6,2.8-4.4,4.3-6.6
	c2.8-4.3,2.5-9.8,2.1-14.9c-0.2-2.4-0.4-4.8-1.4-7c-0.9-1.8-2.2-3.3-3.6-4.8c-1.8-2-3.6-3.9-5.4-5.9c-0.7-0.7-1.2-2.1-0.3-2.5
	c-1.8,0.3-2.9-2.1-2.3-3.8s2.3-2.7,3.7-3.8c7.4-5.6,11.4-15.3,10.2-24.5c-0.1-0.9,0-2.1,0.8-2.2c0.4-0.1,0.8,0.2,1.2,0.5
	c2.1,1.6,4.1,3.2,6.2,4.7c1-1.1,2.1-2.4,3.1-3.5c0,3.6,0,7.1,0,10.6v58.9L144.5,189.7z"/>
<g>
	<path class="st8" d="M64.3,166.2c-0.4,0.2-0.8,0.5-1.1,0.9c-0.4,0.7-0.2,1.5,0.1,2.3c0.7,2.1,1.7,4,2.6,6c2,4.1,4,8.1,6,12.2
		c1.1,2.3,2.2,4.5,3.7,6.6c1,1.4,2.2,2.7,3.3,4c3,3.2,6.2,6.2,9.5,9.2c2.1,1.9,4.2,3.9,6.7,5.2c0.9,0.5,1.8,0.9,2.8,0.9
		c1.8,0.1,3.4-1.1,4.8-2.2c4.9-3.9,9.2-8.8,15.1-10.8c2.2-0.7,4.5-1.1,6.8-1.4c-0.4-3,1.2-5.8,3-8.2c1.8-2.4,4-4.6,4.8-7.5
		c0.4-1.6,0.4-3.3,0.4-5c-0.1-3.2-0.1-6.5-0.3-9.7c0-0.6-0.1-1.3-0.3-1.8c-0.4-0.9-1.2-1.6-2-2.2c-3.7-2.8-7.7-5.8-9-10.2
		c-1.9,1.5-3.9,2.9-5.8,4.4c-0.4,0.3-0.7,0.5-0.9,0.9c-0.2,0.3-0.2,0.7-0.2,1.1c-0.1,3.1,1.2,6,2.6,8.8c1.4,2.7,3,5.4,3.7,8.5
		c0.7,3,0.3,6.5-1.9,8.6c-0.7,0.7-1.7,1.3-2.6,0.8c-1.3-0.6-1-2.6-0.2-3.9c0.8-1.3,1.8-2.8,1.1-4.1c-0.5-0.9-1.7-1.3-2.7-1.2
		c-1,0.1-2,0.6-3,0.9c-2.1,0.7-4.4,0.8-6.6,0.8c-4.1,0.1-8.6,0-11.5-2.7c-1.7-1.6-2.6-3.8-4.3-5.3c-1.4-1.2-3.3-2-4.3-3.6
		c-1.3-2.3-0.2-5.1-0.7-7.7c0-0.3-0.1-0.5-0.3-0.8c-0.5-0.7-1.6-0.5-2.5-0.6c-0.8-0.1-1.4-0.8-1.4-1.6
		C74.5,159.5,69.1,163.4,64.3,166.2z"/>
	<path class="st8" d="M224.5,166.2c0.4,0.2,0.8,0.5,1.1,0.9c0.4,0.7,0.2,1.5-0.1,2.3c-0.7,2.1-1.7,4-2.6,6c-2,4.1-4,8.1-6,12.2
		c-1.1,2.3-2.2,4.5-3.7,6.6c-1,1.4-2.2,2.7-3.3,4c-3,3.2-6.2,6.2-9.5,9.2c-2.1,1.9-4.2,3.9-6.7,5.2c-0.9,0.5-1.8,0.9-2.8,0.9
		c-1.8,0.1-3.4-1.1-4.8-2.2c-4.9-3.9-9.2-8.8-15.1-10.8c-2.2-0.7-4.5-1.1-6.8-1.4c0.4-3-1.2-5.8-3-8.2s-4-4.6-4.8-7.5
		c-0.4-1.6-0.4-3.3-0.4-5c0.1-3.2,0.1-6.5,0.3-9.7c0-0.6,0.1-1.3,0.3-1.8c0.4-0.9,1.2-1.6,2-2.2c3.7-2.8,7.7-5.8,9-10.2
		c1.9,1.5,3.9,2.9,5.8,4.4c0.4,0.3,0.7,0.5,0.9,0.9c0.2,0.3,0.2,0.7,0.2,1.1c0.1,3.1-1.2,6-2.6,8.8s-3,5.4-3.7,8.5
		c-0.7,3-0.3,6.5,1.9,8.6c0.7,0.7,1.7,1.3,2.6,0.8c1.3-0.6,1-2.6,0.2-3.9s-1.8-2.8-1.1-4.1c0.5-0.9,1.7-1.3,2.7-1.2
		c1,0.1,2,0.6,3,0.9c2.1,0.7,4.4,0.8,6.6,0.8c4.1,0.1,8.6,0,11.5-2.7c1.7-1.6,2.6-3.8,4.3-5.3c1.4-1.2,3.3-2,4.3-3.6
		c1.3-2.3,0.2-5.1,0.7-7.7c0-0.3,0.1-0.5,0.3-0.8c0.5-0.7,1.6-0.5,2.5-0.6c0.8-0.1,1.4-0.8,1.4-1.6
		C214.3,159.5,219.7,163.4,224.5,166.2z"/>
</g>
<g>
	<path class="st9" d="M59.1,170.7c-1.6,1.9-3,4-5,5.4s-5.2,1.5-6.7-0.4c1.7,2.8,3.4,5.6,5.2,8.3c1.3,2.1,2.7,4.2,4,6.3
		c4.5,7,9.1,14.1,13.6,21.1c0.8,1.3,1.7,2.5,2.8,3.5c0.9,0.7,2,1.1,3,1.6c5.7,2.3,11.5,4.6,17.3,6.7c1.1,0.4,2.4,0.8,3.5,0.3
		c1.2-0.6,1.6-2.1,1.9-3.5c0.5-2.4,0.9-4.8,1.4-7.1c-1.2,0.5-2.4,1-3.7,0.8c-1-0.2-1.9-0.8-2.7-1.4c-5.4-4.1-10.6-8.7-14.8-14
		c-5.7-7.2-9.7-15.5-13.6-23.8c-0.5-1-0.9-2-1.4-3c-0.3-0.8-0.5-2.2-1-2.8C61.7,167.1,60,169.6,59.1,170.7z"/>
	<path class="st9" d="M229.3,170.7c1.6,1.9,3,4,5,5.4c2.1,1.4,5.2,1.5,6.7-0.4c-1.7,2.8-3.4,5.6-5.2,8.3c-1.3,2.1-2.7,4.2-4,6.3
		c-4.5,7-9.1,14.1-13.6,21.1c-0.8,1.3-1.7,2.5-2.8,3.5c-0.9,0.7-2,1.1-3,1.6c-5.7,2.3-11.5,4.6-17.3,6.7c-1.1,0.4-2.4,0.8-3.5,0.3
		c-1.2-0.6-1.6-2.1-1.9-3.5c-0.5-2.4-0.9-4.8-1.4-7.1c1.2,0.5,2.4,1,3.7,0.8c1-0.2,1.9-0.8,2.7-1.4c5.4-4.1,10.6-8.7,14.8-14
		c5.7-7.2,9.7-15.5,13.6-23.8c0.5-1,0.9-2,1.4-3c0.3-0.8,0.5-2.2,1-2.8C226.7,167.1,228.4,169.6,229.3,170.7z"/>
</g>
<g>
	<path class="st10" d="M115.2,170c-0.1-1-0.6-1.9-1-2.7c-1.2-2.5-2.4-5-3.7-7.5c-0.1-0.3-0.3-0.6-0.5-0.8c-0.2-0.2-0.6-0.3-0.9-0.4
		c-2.5-0.9-4.9-1.7-7.5-2.2c-2.4-0.4-4.8-0.6-7.2-0.4c-1.2,0.1-2.5,0.2-3.7,0.4c-0.9,0.2-2.8,0.3-3.5,0.8c-1,0.8-0.6,4.5-0.5,5.8
		c0.1,2.1,0.6,4.2,1.7,6.1c1.5,2.6,4.1,4.3,6.6,6c1.3,0.9,2.7,1.8,4.2,2.3c1.2,0.4,2.5,0.5,3.7,0.6c2.8,0.2,5.7,0.1,8.2-1.2
		C113.7,175.5,115.6,172.8,115.2,170z M102.4,168.5c-0.1,0.5-0.3,1-0.8,1.2c-0.2,0.1-0.5,0-0.7-0.1c-0.8-0.5-0.9-1.5-0.9-2.5
		c0-0.8,0-1.5,0-2.3c0-1.2-0.1-4.4,1.8-4.2c0.5,0.1,0.9,0.4,1,0.9c0.2,0.4,0.2,0.9,0.2,1.4C103.1,164.8,102.9,166.7,102.4,168.5z"/>
	<path class="st10" d="M177.6,176.7c2.5,1.3,5.4,1.3,8.2,1.2c1.3-0.1,2.5-0.2,3.7-0.6c1.5-0.5,2.9-1.4,4.2-2.3
		c2.5-1.6,5.1-3.4,6.6-6c1.1-1.8,1.5-4,1.7-6.1c0.1-1.3,0.6-5-0.5-5.8c-0.7-0.6-2.6-0.7-3.5-0.8c-1.2-0.2-2.5-0.4-3.7-0.4
		c-2.4-0.1-4.8,0-7.2,0.4c-2.6,0.5-5,1.3-7.5,2.2c-0.3,0.1-0.6,0.2-0.9,0.4c-0.2,0.2-0.4,0.5-0.5,0.8c-1.3,2.5-2.5,5-3.7,7.5
		c-0.4,0.9-0.8,1.8-1,2.7C173.2,172.8,175.1,175.5,177.6,176.7z M185.8,162.9c0-0.5,0-1,0.2-1.4c0.2-0.4,0.6-0.8,1-0.9
		c1.9-0.2,1.8,3,1.8,4.2c0,0.8,0,1.5,0,2.3c0,0.9-0.1,2-0.9,2.5c-0.2,0.1-0.5,0.2-0.7,0.1c-0.5-0.1-0.7-0.7-0.8-1.2
		C186,166.7,185.7,164.8,185.8,162.9z"/>
</g>
<g>
	<path d="M142.3,239.5c-0.3,0.9-0.1,1.9,0.3,2.8c0.1,0.3,0.2,0.5,0.4,0.8c0.7,0.8,2,0.8,2.8,0.2c0.9-0.6,1.3-1.7,1.4-2.7
		c0-0.4,0.1-0.7,0-1.1c-0.2-1.1-1.4-1.9-2.5-2C143.8,237.5,142.6,238.6,142.3,239.5z"/>
	<g>
		<path d="M80.2,157.4c-0.5,0.4-0.7,1.1-0.5,1.6c0.3,0.6,1,0.8,1.6,0.8c0.6,0,1.3-0.3,1.9-0.3c0.2,0,0.5,0,0.7,0.2
			c0.2,0.2,0.2,0.5,0.2,0.8c-0.1,1.7-0.2,3.4-0.3,5.1c-0.1,1.1-0.1,2.3,0.4,3.2c0.6,1.1,1.9,1.7,3,2.4c2.1,1.4,3.7,3.5,5.3,5.5
			c0.6,0.8,1.3,1.6,2.2,2.1c1,0.6,2.3,0.7,3.5,0.8c5.3,0.5,10.8,0.9,15.7-1.2c0.7-0.3,1.5-0.7,2.3-0.5c1.2,0.4,1.5,2,1.1,3.2
			c-0.5,1.2-1.4,2.1-1.9,3.3c-0.5,1.2-0.5,2.8,0.6,3.4c1,0.6,2.4-0.1,3.1-1c1.6-1.9,1.9-4.5,2.1-7c0.1-1.3,0.2-2.6-0.4-3.7
			c-0.4-0.8-1.1-1.3-1.6-2c-0.7-0.9-1.1-2-1.5-3c-0.7-1.8-1.3-3.6-2-5.4c-0.8-2.1-1.6-4.3-1.6-6.5c-1.3-0.3-2.7-0.5-4-0.7
			c2.1,3.8,4.3,7.6,5.1,11.8c0.1,0.6,0.2,1.3,0,1.9c-0.2,0.5-0.5,1-0.9,1.4c-1,1.2-2.1,2.5-3.5,3.1c-1.2,0.6-2.5,0.7-3.9,0.8
			c-3.3,0.2-6.9,0.4-9.9-1.1c-1.5-0.7-2.9-1.9-4.2-3c-2.3-2-4.8-4.1-5.7-7.1c-0.7-2.1-0.5-4.3-0.3-6.5c0.1-0.9,0-2-0.9-2.3
			c-0.4-0.1-0.8-0.1-1.2,0c-1.5,0.2-0.9-0.8-1.8-1.2C82.3,156.2,80.7,157,80.2,157.4z"/>
		<path d="M208.7,157.4c0.5,0.4,0.7,1.1,0.5,1.6c-0.3,0.6-1,0.8-1.6,0.8c-0.6,0-1.3-0.3-1.9-0.3c-0.2,0-0.5,0-0.7,0.2
			c-0.2,0.2-0.2,0.5-0.2,0.8c0.1,1.7,0.2,3.4,0.3,5.1c0.1,1.1,0.1,2.3-0.4,3.2c-0.6,1.1-1.9,1.7-3,2.4c-2.1,1.4-3.7,3.5-5.3,5.5
			c-0.6,0.8-1.3,1.6-2.2,2.1c-1,0.6-2.3,0.7-3.5,0.8c-5.3,0.5-10.8,0.9-15.7-1.2c-0.7-0.3-1.5-0.7-2.3-0.5c-1.2,0.4-1.5,2-1.1,3.2
			c0.5,1.2,1.4,2.1,1.9,3.3c0.5,1.2,0.5,2.8-0.6,3.4c-1,0.6-2.4-0.1-3.1-1c-1.6-1.9-1.9-4.5-2.1-7c-0.1-1.3-0.2-2.6,0.4-3.7
			c0.4-0.8,1.1-1.3,1.6-2c0.7-0.9,1.1-2,1.5-3c0.7-1.8,1.3-3.6,2-5.4c0.8-2.1,1.6-4.3,1.6-6.5c1.3-0.3,2.7-0.5,4-0.7
			c-2.1,3.8-4.3,7.6-5.1,11.8c-0.1,0.6-0.2,1.3,0,1.9c0.2,0.5,0.5,1,0.9,1.4c1,1.2,2.1,2.5,3.5,3.1c1.2,0.6,2.5,0.7,3.9,0.8
			c3.3,0.2,6.9,0.4,9.9-1.1c1.5-0.7,2.9-1.9,4.2-3c2.3-2,4.8-4.1,5.7-7.1c0.7-2.1,0.5-4.3,0.3-6.5c-0.1-0.9,0-2,0.9-2.3
			c0.4-0.1,0.8-0.1,1.2,0c1.5,0.2,0.9-0.8,1.8-1.2C206.6,156.2,208.2,157,208.7,157.4z"/>
		<path d="M101.8,160.6c-1.9-0.2-1.8,3-1.8,4.2c0,0.8,0,1.5,0,2.3c0,0.9,0.1,2,0.9,2.5c0.2,0.1,0.5,0.2,0.7,0.1
			c0.5-0.1,0.7-0.7,0.8-1.2c0.4-1.8,0.6-3.7,0.6-5.6c0-0.5,0-1-0.2-1.4C102.7,161.1,102.3,160.7,101.8,160.6z"/>
		<path d="M187,160.6c1.9-0.2,1.8,3,1.8,4.2c0,0.8,0,1.5,0,2.3c0,0.9-0.1,2-0.9,2.5c-0.2,0.1-0.5,0.2-0.7,0.1
			c-0.5-0.1-0.7-0.7-0.8-1.2c-0.4-1.8-0.6-3.7-0.6-5.6c0-0.5,0-1,0.2-1.4C186.1,161.1,186.5,160.7,187,160.6z"/>
	</g>
</g>
<g>
	<path class="st0" d="M156.2,215.9c0.7,0,2.8-0.1,3.4,0.2c1.2,0.6,2.1,2.6,0.6,4.2c-0.9,1-1.1,2.3-2,3.3c-1.4-0.1-3.6-0.2-4.9,0.3
		c-3.1,1.3-3.7,3.6-3.8,6.6c0,0.5,1.2,2.1,1.1,2.6c-0.1,0.4-1.3,1.3-1.6,1.6c-1.5,1.7-2.1,2.3-2.4,3.7c0-0.2-0.8-0.6-1.8-0.8
		c-0.1,0-0.1,0.1-0.1,0c0.1-1.9-0.3-7.5-0.3-8c-0.1-2.8,0-5.6,0.1-8.4c0-1.1-0.2-3.3,0.2-4.3c0.5-1,1.8-0.7,3-0.7
		C150.5,216.1,153.4,216,156.2,215.9z"/>
	<g>
		<g>
			<path class="st0" d="M19.4,58.5c-0.1,2.7-0.1,5.5,0.5,8.1c0.8,3.4,2.7,6.5,4.1,9.7c5.8,13,4.6,28.8,12.5,40.7
				c3.1,4.7,7.4,8.4,10.7,13c16.9-13.4,33.7-26.7,50.6-40.1C82.1,74.2,66.5,58.4,50.9,42.7c-1.8-1.8-3.6-3.6-5.7-5
				c-6.2-4.1-14.4-3.7-21-0.7c-4.6,2-4.3,3.6-4.4,8.4C19.6,49.7,19.5,54.1,19.4,58.5z"/>
			<path class="st0" d="M269.2,58.5c0.1,2.7,0.1,5.5-0.5,8.1c-0.8,3.4-2.7,6.5-4.1,9.7c-5.8,13-4.6,28.8-12.5,40.7
				c-3.1,4.7-7.4,8.4-10.7,13c-16.9-13.4-33.7-26.7-50.6-40.1c15.6-15.7,31.3-31.5,46.9-47.2c1.8-1.8,3.6-3.6,5.7-5
				c6.2-4.1,14.4-3.7,21-0.7c4.6,2,4.3,3.6,4.4,8.4C269,49.7,269.1,54.1,269.2,58.5z"/>
		</g>
		<path class="st0" d="M133.1,215.9c-0.7,0-2.8-0.1-3.4,0.2c-1.2,0.6-2.1,2.6-0.6,4.2c0.9,1,1.1,2.3,2,3.3c1.4-0.1,3.6-0.2,4.9,0.3
			c3.1,1.3,3.7,3.6,3.8,6.6c0,0.5-1.2,2.1-1.1,2.6c0.1,0.4,1.3,1.3,1.6,1.6c1.5,1.7,2.1,2.3,2.4,3.7c0-0.2,0.8-0.6,1.8-0.8
			c0.1,0,0.1,0.1,0.1,0c-0.1-1.9,0.3-7.5,0.3-8c0.1-2.8,0-5.6-0.1-8.4c0-1.1,0.2-3.3-0.2-4.3c-0.5-1-1.8-0.7-3-0.7
			C138.8,216.1,136,216,133.1,215.9z"/>
	</g>
</g>
<g>
	<path class="st9" d="M134.4,223.6c-1-0.1-1.9,0-2.9,0c-0.1,0.4,0.2,0.8,0.4,1.1c0.4,0.6,0.7,1.2,1,1.8c1.3,2.3,3.5,4.1,5.6,5.9
		c0.1,0.1,0.3,0.2,0.4,0.1c0.1,0,0.1-0.1,0.1-0.2C140.9,228.9,138.6,224,134.4,223.6z"/>
	<path class="st9" d="M154.4,223.6c0.9-0.1,2.9,0,3.8,0c0.1,0.4-0.9,1.3-1.1,1.7c-0.4,0.6-0.9,1-1.2,1.6c-1.2,2.3-3,4.1-5,5.9
		c-0.1,0.1-0.3,0.5-0.4,0.4c-0.1,0-0.5-0.7-0.5-0.8C148.4,228.9,150.5,224,154.4,223.6z"/>
</g>
<g>
	<path class="st11" d="M140.2,242.8c-1.1-0.5-2.1-1.2-3.3-1.2c-0.9,0-1.7,0.4-2.5,0.9c-1.5,0.8-3.1,1.7-4.6,2.5
		c0.9,0.8,0.9,2.2,1.2,3.4c0.7,2.6,3,4.5,5.5,5.4c2.5,0.9,5.3,1,7.9,1c0.1-3.3,0.3-6.6,0.4-9.9C145.1,242.6,142,243.6,140.2,242.8z"
		/>
	<path class="st12" d="M139,193.5c-4.6,5.1-8.2,11-10.6,17.3c-0.4,1.1-0.8,2.4-0.2,3.5c0.9,1.6,3.3,1.7,5.2,1.6
		c3.9-0.2,7.9,0,11.8,0.5c-0.6-0.1-0.1-16.2-0.1-17.8c0-1.6,0.9-6.8-0.3-8C143.4,188.9,140,192.4,139,193.5z"/>
</g>
<g>
	<path class="st13" d="M149.3,242.8c1.1-0.5,2.1-1.2,3.3-1.2c0.9,0,1.7,0.4,2.5,0.9c1.5,0.8,3.1,1.7,4.6,2.5
		c-0.9,0.8-0.9,2.2-1.2,3.4c-0.7,2.6-3,4.5-5.5,5.4c-2.5,0.9-5.3,1-7.9,1c-0.1-3.3-0.3-6.6-0.4-9.9
		C144.4,242.6,147.5,243.6,149.3,242.8z"/>
	<path class="st13" d="M151,193.5c4.6,5.1,8.2,11,10.5,17.3c0.4,1.1,0.8,2.4,0.2,3.5c-0.9,1.6-3.3,1.7-5.2,1.6
		c-3.9-0.2-7.9,0-11.8,0.5c0.6-0.1,0.1-16.2,0.1-17.8c0-1.6-0.9-6.8,0.3-8C146.7,188.9,150,192.4,151,193.5z"/>
</g>
</svg>
