<?xml version="1.0" encoding="utf-8"?>
<!-- Generator: Adobe Illustrator 22.0.1, SVG Export Plug-In . SVG Version: 6.00 Build 0)  -->
<svg version="1.1" id="Layer_1" xmlns="http://www.w3.org/2000/svg" xmlns:xlink="http://www.w3.org/1999/xlink" x="0px" y="0px"
	 viewBox="0 0 283.5 283.5" style="enable-background:new 0 0 283.5 283.5;" xml:space="preserve">
<style type="text/css">
	.st0{fill:#9A9495;}
	.st1{fill:#3D3839;}
	.st2{fill:none;stroke:#000000;stroke-miterlimit:10;}
	.st3{fill:#DEB8AC;}
	.st4{fill:#B3B3B3;}
	.st5{fill:#848484;}
	.st6{fill:#A09F9F;}
	.st7{fill:#C1C1BF;}
	.st8{fill:#D2D2D1;}
	.st9{fill:#686867;}
	.st10{fill:#FFFFFF;}
	.st11{fill:#E9E8EB;}
	.st12{fill:#ECEAE9;}
	.st13{fill:#D6D6D6;}
	.st14{fill:#060406;}
	.st15{fill:#2B1F2B;}
	.st16{fill:none;}
	.st17{fill:#221635;}
	.st18{fill:#C47669;}
	.st19{fill:#522D4C;}
	.st20{fill:#4F3552;}
	.st21{fill:#E3A7A0;}
	.st22{fill:#E2A1A6;}
	.st23{fill:#46092D;}
	.st24{fill:#974439;}
	.st25{fill:#9B5C47;}
	.st26{fill:#D49F8E;}
	.st27{fill:#D5A793;}
	.st28{fill:#E6C7B5;}
	.st29{fill:#6A3238;}
	.st30{fill:#4B1E33;}
	.st31{fill:#8C4544;}
	.st32{fill:#0F1B43;}
	.st33{fill:#DCB8A3;}
	.st34{fill:#E5C1B4;}
	.st35{fill:#CCABA0;}
	.st36{fill:#CB8C76;}
	.st37{fill:#AB554B;}
	.st38{fill:#0D1232;}
	.st39{fill:#121212;}
	.st40{fill:#212020;}
	.st41{fill:#DCDBDB;}
	.st42{fill:#AEACAB;}
	.st43{fill:#565555;}
	.st44{fill:#898989;}
</style>
<path class="st0" d="M141.7,31.2c-61,0-110.5,49.5-110.5,110.5s49.5,110.5,110.5,110.5s110.5-49.5,110.5-110.5
	S202.8,31.2,141.7,31.2z M141.7,211.2c-38.4,0-69.5-31.1-69.5-69.5c0-38.4,31.1-69.5,69.5-69.5s69.5,31.1,69.5,69.5
	C211.2,180.1,180.1,211.2,141.7,211.2z"/>
<path class="st1" d="M141.7,72.3c-38.4,0-69.5,31.1-69.5,69.5c0,38.4,31.1,69.5,69.5,69.5s69.5-31.1,69.5-69.5
	C211.2,103.4,180.1,72.3,141.7,72.3z M141.2,170.3c-15.8,0-28.6-12.8-28.6-28.6c0-15.8,12.8-28.6,28.6-28.6s28.6,12.8,28.6,28.6
	C169.8,157.5,157,170.3,141.2,170.3z"/>
<circle cx="141.2" cy="141.7" r="28.6"/>
</svg>
