<?xml version="1.0" encoding="utf-8"?>
<!-- Generator: Adobe Illustrator 22.0.1, SVG Export Plug-In . SVG Version: 6.00 Build 0)  -->
<svg version="1.1" id="Layer_1" xmlns="http://www.w3.org/2000/svg" xmlns:xlink="http://www.w3.org/1999/xlink" x="0px" y="0px"
	 viewBox="0 0 283.5 283.5" style="enable-background:new 0 0 283.5 283.5;" xml:space="preserve">
<style type="text/css">
	.st0{fill:#9A9495;}
	.st1{fill:#3D3839;}
	.st2{fill:none;stroke:#000000;stroke-miterlimit:10;}
	.st3{fill:#DEB8AC;}
	.st4{fill:#B3B3B3;}
	.st5{fill:#848484;}
	.st6{fill:#A09F9F;}
	.st7{fill:#C1C1BF;}
	.st8{fill:#D2D2D1;}
	.st9{fill:#686867;}
	.st10{fill:#FFFFFF;}
	.st11{fill:#E9E8EB;}
	.st12{fill:#ECEAE9;}
	.st13{fill:#D6D6D6;}
	.st14{fill:#060406;}
	.st15{fill:#2B1F2B;}
	.st16{fill:none;}
	.st17{fill:#221635;}
	.st18{fill:#C47669;}
	.st19{fill:#522D4C;}
	.st20{fill:#4F3552;}
	.st21{fill:#E3A7A0;}
	.st22{fill:#E2A1A6;}
	.st23{fill:#46092D;}
	.st24{fill:#974439;}
	.st25{fill:#9B5C47;}
	.st26{fill:#D49F8E;}
	.st27{fill:#D5A793;}
	.st28{fill:#E6C7B5;}
	.st29{fill:#6A3238;}
	.st30{fill:#4B1E33;}
	.st31{fill:#8C4544;}
	.st32{fill:#0F1B43;}
	.st33{fill:#DCB8A3;}
	.st34{fill:#E5C1B4;}
	.st35{fill:#CCABA0;}
	.st36{fill:#CB8C76;}
	.st37{fill:#AB554B;}
	.st38{fill:#0D1232;}
	.st39{fill:#121212;}
	.st40{fill:#212020;}
	.st41{fill:#DCDBDB;}
	.st42{fill:#AEACAB;}
	.st43{fill:#565555;}
	.st44{fill:#898989;}
</style>
<polygon class="st3" points="103.4,117 95.6,124.8 99.5,113.5 "/>
<line class="st16" x1="95.6" y1="124.8" x2="103.4" y2="117"/>
<line class="st16" x1="100.8" y1="150.6" x2="102.7" y2="153.6"/>
<g>
	<polygon class="st39" points="86,151.8 80.8,146.1 77.1,143.4 78.2,148.6 80,151.8 88.6,154.2 92.4,154.2 	"/>
	<polygon class="st39" points="82.3,134 94.8,115 87,131 	"/>
	<polygon class="st39" points="77.9,96.6 94.1,106.9 97.5,102.7 	"/>
</g>
<line class="st16" x1="121.2" y1="180" x2="120.8" y2="183.7"/>
<line class="st16" x1="121.2" y1="180" x2="120.8" y2="183.7"/>
<line class="st16" x1="119.7" y1="188.2" x2="120.8" y2="183.7"/>
<line class="st16" x1="122.9" y1="90.6" x2="111.3" y2="97"/>
<line class="st16" x1="112.6" y1="107.7" x2="106.6" y2="107.2"/>
<line class="st16" x1="105" y1="98.8" x2="111.3" y2="97"/>
<g>
	<polygon class="st40" points="100.6,201.9 95.8,207.9 101.7,217.2 113.3,221.9 129.4,216.9 113.5,210.3 	"/>
	<polygon class="st40" points="155.4,167.4 151.6,183.7 135.1,215.2 160.1,207.4 167.1,203 178.4,179.6 181.1,160.6 	"/>
	<polygon class="st40" points="87.3,163.2 87,167.4 91.2,172.7 95.2,172 102.7,175 112.2,179.6 117.3,181.5 120.8,183.7 121.2,180 
		114,177.4 93.2,165 90.2,164.5 90.6,157.7 	"/>
	<polygon class="st40" points="90.2,180 85.6,183 91.2,188.5 96.9,180 	"/>
	<polygon class="st40" points="98.1,90 103.4,89.1 101.7,79.7 104.9,58.1 96.8,42.7 87,56.5 82.8,77.3 77.9,96.6 97.5,102.7 	"/>
	<polygon class="st40" points="112.7,108.1 106.6,107.2 113.3,124 120,129 121.6,123.8 128.9,121.5 139.9,117.8 142.2,111.5 
		135.8,115.6 130.9,117.8 121.6,119.7 119.2,118 115.1,114.5 114.2,116.5 112.7,108.1 112.7,108.1 113.3,102.6 120.5,100.2 
		128.2,99.7 124.1,90.3 111.3,97 105.1,98.8 106.7,107.2 	"/>
	<polygon class="st40" points="84.5,184.5 85.7,181.6 86.2,176.1 90.5,173.8 84.3,169 82.5,160.4 88.6,154.2 80,151.8 78.2,148.6 
		77.1,143.4 73.6,148.8 75.3,160.6 77.9,171.4 80.8,181.9 83.9,193.2 89.5,204.2 86.2,188 	"/>
</g>
<g>
	<polygon class="st41" points="129.4,216.9 135.1,215.2 113.5,210.3 	"/>
	<polygon class="st41" points="135.1,158.2 120,160.6 113.1,150.3 113.1,138.6 113.3,132.1 113.3,124 109.3,131.8 109.3,131.5 
		103.3,117 99.3,113.5 95.4,124.8 95.1,134.4 95,134.5 82.8,140.8 91,143.9 91,144 100.7,145.1 105.2,148.9 107.8,154.2 
		106.1,157.3 94.8,157.7 93.2,165 114,177.4 121.2,180 120.8,183.7 119.7,188.2 116.9,198.1 151.6,183.7 155.4,167.4 147,155.4 
		143.3,164.5 	"/>
	<polygon class="st41" points="135.1,215.2 116.9,198.1 113.5,210.3 	"/>
	<polygon class="st41" points="154.7,106.4 157.5,116.8 147,116.8 136.2,127.5 140.4,142.6 130.9,147.5 147,155.4 153.1,153.2 
		160.1,150.6 167.1,127.5 175.3,109.9 167.8,93.3 	"/>
	<polygon class="st41" points="167.8,93.3 185.7,100.1 172.9,75.5 148.7,61.5 160.1,46.6 148.7,35.3 130.9,50.3 135.1,75.8 
		138.9,86 152.2,95.8 154.7,106.4 167.8,93.3 	"/>
	<polygon class="st41" points="124.1,117.6 132.6,114.4 136.2,111.9 135.5,108.3 128.6,107.5 131.8,109.6 128.6,113.8 124.9,115.2 
		120.9,115.2 116.5,111 115.1,114.5 119.2,118 	"/>
</g>
<g>
	<polygon class="st42" points="154.7,106.4 147,111.5 142.2,111.5 139.9,117.8 141.8,122 147,116.8 157.5,116.8 	"/>
	<polygon class="st42" points="147,109 154.7,106.4 152.2,95.8 142.2,90.9 132.6,89.8 137.4,101.8 144.8,106.4 139.9,105.4 
		132.4,101.8 123.2,101.8 117.1,103.8 117.1,104.5 129.4,103.8 135.1,104.7 141.3,107.8 	"/>
</g>
<g>
	<polygon class="st43" points="90.2,164.5 93.2,165 94.8,157.7 90.6,157.7 	"/>
	<polygon class="st43" points="91.2,172.7 92.5,176 102.7,175 95.2,172 	"/>
	<polygon class="st43" points="113.1,150.3 120,160.6 135.1,158.2 130.9,147.5 128.6,131 128.9,121.5 121.6,123.8 120,129 
		113.3,124 113.1,139.4 	"/>
	<polygon class="st43" points="82.3,134 77.6,139.5 77.1,143.4 80.8,146.1 82.8,140.8 87,131 	"/>
	<polygon class="st43" points="100.8,150.6 102.7,153.6 97.9,153.6 93.5,152.5 87.7,149.1 86,151.8 92.4,154.2 94.8,157.7 
		106.1,157.3 107.8,154.2 105.2,148.9 	"/>
	<polygon class="st43" points="98.1,90 97.5,102.7 97.5,102.7 94.1,106.9 99.5,113.5 103.4,117 109.5,131.5 113.3,124 106.6,107.2 
		106.6,107.2 105,98.8 105,98.8 100.9,95.2 103.4,89.1 	"/>
	<polygon class="st43" points="185.7,126.7 176.8,120.9 185.7,100.1 167.8,93.3 175.3,109.9 167.1,127.5 155.4,167.4 181.1,160.6 
		175.3,146.8 176.8,139.2 	"/>
	<polygon class="st43" points="168.3,50.1 160.1,46.6 148.7,61.5 172.9,75.5 	"/>
	<polygon class="st43" points="113.3,68.1 122.4,50.1 130.9,50.3 138.9,42.3 125.6,44.2 117.1,39.8 103.4,38.3 96.8,42.7 
		104.9,58.1 101.7,79.7 103.4,89.1 110.9,83.4 	"/>
</g>
<line class="st16" x1="198.2" y1="54.1" x2="179" y2="39.2"/>
<g>
	<polygon class="st44" points="93.2,204 95.8,207.9 100.6,201.9 99.3,198.1 	"/>
	<polygon class="st44" points="120.8,183.7 117.3,181.5 112.2,179.6 96.9,180 91.2,188.5 96.9,188.8 105.8,191.9 99.3,198.1 
		99.3,198.1 100.6,201.9 113.5,210.3 119.7,188.2 	"/>
	<polygon class="st44" points="135.1,215.2 151.6,183.7 116.9,198.1 	"/>
	<polygon class="st44" points="130.9,147.5 135.1,158.2 143.3,164.5 147,155.4 	"/>
	<polygon class="st44" points="136.2,127.5 141.8,122 139.9,117.8 128.9,121.5 128.6,131.5 130.9,147.5 140.4,142.6 	"/>
	<polygon class="st44" points="147,155.4 143.3,164.5 155.4,167.4 162.4,143.7 	"/>
	<polygon class="st44" points="128.2,99.7 137.4,101.8 132.6,89.8 124.1,90.3 	"/>
	<polygon class="st44" points="138.9,86 135.1,75.8 130.9,50.3 122.4,50.1 113.3,68.1 110.9,83.4 103.4,89.1 128.6,84.9 	"/>
	<polygon class="st44" points="95.6,124.8 99.5,113.5 94.1,106.9 94.8,115 87,131 82.8,140.8 95.2,134.4 	"/>
	<polygon class="st44" points="100.8,150.6 105.2,148.9 100.7,145.1 91.2,144 82.8,140.8 80.8,146.1 86,151.8 87.7,149.1 
		96.1,147.5 	"/>
</g>
<g>
	<polygon points="102.7,153.6 97.9,153.6 93.5,152.5 87.7,149.1 96.1,147.5 100.8,150.6 	"/>
	<g>
		<polygon points="132.6,89.8 142.2,90.9 152.2,95.8 138.9,86 128.6,84.9 103.4,89.1 100.9,95.2 105,98.8 111.3,97 124.1,90.3 		"/>
		<polygon points="124.1,117.6 119.2,118 121.6,119.7 130.9,117.8 135.8,115.6 142.2,111.5 147,111.5 154.7,106.4 147,109 
			141.3,107.8 135.1,104.7 129.4,103.8 117.1,104.5 117.1,103.8 123.2,101.8 132.4,101.8 139.9,105.4 144.8,106.4 137.4,101.8 
			128.2,99.7 120.5,100.2 113.3,102.6 112.6,107.7 112.7,108.1 112.7,108.1 114.2,116.5 116.5,111 120.9,115.2 124.9,115.2 
			128.6,113.8 131.8,109.6 128.6,107.5 135.1,108.1 135.5,108.3 136.2,111.9 132.6,114.4 		"/>
		<path d="M228.7,223.1l7.7-23.9L221,188.8l6.2-18.1l-6.5-14.7l-2.2-9.7l2.3-15.3l1.8,20.8l5.2,1.9l-2,7.7l6.2-10.6l-6.2-3.2
			l4.8-32.3l-9.8-19.4l-6-13.9l10.7,5.2l-0.3,9.6l15.4,18.5l-11.4-25.4l2-7.9l-11.1-12.3l-5.6-20.7l-22.7-22.6l-35.9-14.7l-46.2,5.3
			L82.8,35.5L65.3,71.2L52.1,90.3l2.6,24.7l-10,26l5,14.3l-7,15.4l1.4,6.1l-2.2,8.9l4.3,2.2l-5.3,4l4.3,11.1l-5.7,10.5l3.6,8.4v-8.6
			l5.2-9.1l-2-11.4l5.4-7l-5.4-3.9l5.4-7.9l8.4,29l-10.2,12.1l5.1,8l-5.6,10.4l6.5,11.3L55,232.7l8.8-10.8l-2.2-10.4l19.3,10.4
			l-6.3,16.5L82,247l-7.5,11.1l13.2-9.6l-4.8-12.2l7.4-7.4l6,1.9l7.8,8.6l-3.8,6.1l4.7,5.9l-3.4,6.4l4.4,5.8l0.6,6.9l3-6.3l-3.5-6.6
			l3.5-6l-4.5-6.9l4.5-4.6l-5.9-5.9l-1.9-10.9h11.4h11.8l35.2-15.8l-46.8,14.6l-11.5-4.8L93.2,204l12.5-12.2l-8.9-3.1l-5.7-0.3
			l-5.6-5.4l4.7-3l21.9-0.4l-9.4-4.6L92.5,176l-1.3-3.3l-4.2-5.3l0.3-4.2l3.4-5.5h4.2l-2.4-3.5h-3.8l-6.1,6.2l1.8,8.6l6.2,4.8
			l-4.3,2.2l-0.5,5.5l-1.1,2.9l1.7,3.5l3.3,16.2l-5.6-11l-8.6-32.6l-1.8-11.8l3.5-5.4l0.5-3.9l3.2-3.7l1.6-1.8l6.2-9.5l6.2-9.5
			l-0.7-8.1L77.9,96.6l5-19.3L87,56.5l6-8.4l9.8-8.2l14.3-0.1l8.5,4.4l8.4-0.9l-5.8,6.9l2.7,10.6l-5.2,8.8l3,5.9l0.9-5.9l4.7-8.8
			l-2.4-10.7l12.5-10.9l-5.4,10.9l2.9,4.2l-0.2-4.5l10-11.5l8.5,8.3l8.2,3.5l4.6,25.4l12.8,24.6l-8.9,20.8l8.9,5.8l-8.9,12.5
			l-1.5,7.6l5.8,13.7l-2.7,19L167.1,203l8.9,8l-6.7,8l6.7,11.6l-3.4,10.2l5.2,5.8l-2.6,7l8.6,6.7l1.8,15.4l1.7-15.1l-7.2-6.8
			l1.9-6.2l-5.6-8.1l3.4-5.2l-5.6-13.7l6.1-6.4l-1.1-4.8l3.3,5.2l-3.3,9.8l5.5,6.1l-3.6,7.4l8.6,5.8l2.2,15.2l10,11.2l-6.5-11.2
			l-2.8-15.2l-6-5.7l1.9-5.8l-4.7-9.1l2.8-4.6l-4.5-13.5l5.5-5.8l6.4-15.5l0.4,15.5l9.5,14.4l-8.4,21.2l16.9,24.1l-10.5-24.1
			l15.1-24.6L203.1,194l13.6-18l-1.8,22.1l13,9.8l-3.8,22.5l7.6,8.8l-7.6,12l15.1,12.3l-6.6-12.6l7.6-13.3L228.7,223.1z M89.5,204.2
			"/>
	</g>
</g>
</svg>
