<?xml version="1.0" encoding="utf-8"?>
<!-- Generator: Adobe Illustrator 22.0.1, SVG Export Plug-In . SVG Version: 6.00 Build 0)  -->
<svg version="1.1" id="Layer_1" xmlns="http://www.w3.org/2000/svg" xmlns:xlink="http://www.w3.org/1999/xlink" x="0px" y="0px"
	 viewBox="0 0 283.5 283.5" style="enable-background:new 0 0 283.5 283.5;" xml:space="preserve">
<style type="text/css">
	.st0{fill:#9A9495;}
	.st1{fill:#3D3839;}
	.st2{fill:none;stroke:#000000;stroke-miterlimit:10;}
	.st3{fill:#DEB8AC;}
	.st4{fill:#B3B3B3;}
	.st5{fill:#848484;}
	.st6{fill:#A09F9F;}
	.st7{fill:#C1C1BF;}
	.st8{fill:#D2D2D1;}
	.st9{fill:#686867;}
	.st10{fill:#FFFFFF;}
	.st11{fill:#E9E8EB;}
	.st12{fill:#ECEAE9;}
	.st13{fill:#D6D6D6;}
	.st14{fill:#060406;}
	.st15{fill:#2B1F2B;}
	.st16{fill:none;}
	.st17{fill:#221635;}
	.st18{fill:#C47669;}
	.st19{fill:#522D4C;}
	.st20{fill:#4F3552;}
	.st21{fill:#E3A7A0;}
	.st22{fill:#E2A1A6;}
	.st23{fill:#46092D;}
	.st24{fill:#974439;}
	.st25{fill:#9B5C47;}
	.st26{fill:#D49F8E;}
	.st27{fill:#D5A793;}
	.st28{fill:#E6C7B5;}
	.st29{fill:#6A3238;}
	.st30{fill:#4B1E33;}
	.st31{fill:#8C4544;}
	.st32{fill:#0F1B43;}
	.st33{fill:#DCB8A3;}
	.st34{fill:#E5C1B4;}
	.st35{fill:#CCABA0;}
	.st36{fill:#CB8C76;}
	.st37{fill:#AB554B;}
	.st38{fill:#0D1232;}
	.st39{fill:#121212;}
	.st40{fill:#212020;}
	.st41{fill:#DCDBDB;}
	.st42{fill:#AEACAB;}
	.st43{fill:#565555;}
	.st44{fill:#898989;}
</style>
<g>
	<path d="M119.8,151.1c-0.3,9.1,3.8,18.2,10.7,24c0.5-1.2,1.1-2,0.5-3.1c-0.5-0.9-1.7-1.8-2.4-2.6c-1.5-1.8-2.8-3.6-4-5.6
		c-1.2-2-2.2-4.1-3-6.2C121,155.7,119.8,153.1,119.8,151.1z"/>
	<path d="M125.6,259.5c-6.4-18.3-8.9-38.2-5.6-57.4c3.2-18.7,12.4-37.8,27.2-50c-3.3,6.1-8.2,11.5-11.5,17.8
		c-3.4,6.6-6.3,13.5-8.5,20.6c-4.4,14.2-6.3,29.1-5.6,44C122.1,242.9,123.4,251.3,125.6,259.5z"/>
	<path d="M162.5,42.4c0.1,1.7,0.5,3.4,1.3,4.7c-0.2-1.8,0.8-6.2,1.7-7.8c2.1-3.8,5-4.3,9.4-3.8c3.7,0.4,9.6,3.2,12.2,6
		c2.3,2.5,5,8.9,5.7,12.2c2.3,10.5,1.4,23.8-0.9,34.3c-1.2,5.4-2.2,10.4-4.2,16.5c-2.6,8.2-3.6,14.6,0.9,21.9
		c-2-9.9,1.9-19.9,4.5-29.6c2.7-10,4.1-20.3,4.1-30.7c0-8.4-1-17.2-5.5-24.2c-3.1-4.8-9.1-8-14.6-9.2c-5-1.1-12.2-0.3-14,5.6
		C162.5,39.6,162.4,41,162.5,42.4z"/>
	<path d="M135.6,115.4c-0.2-0.5-1.9-1.4-0.4-1.8c0.4-0.1,0.8,0,1.2,0.2c0.3,0.2,0.5,0.3,0.7,0.6c0.3,0.4,0.4,1,0.4,1.5
		c0,0.5-0.2,1.1-0.4,1.6c-0.1,0.4-0.3,0.7-0.5,1c-0.2,0.3-0.6,0.6-1,0.6c-0.4,0-0.7-0.1-1-0.3c-0.8-0.5-1.3-1.5-1.4-2.4
		c0.1,0.3,0.2,0.6,0.4,0.9c0.2,0.3,0.5,0.5,0.9,0.4c0.4,0,0.7-0.5,1.1-0.7c0.1,0,0.2-0.1,0.2-0.2c0-0.1,0.1-0.1,0.1-0.2
		C135.8,116.3,135.8,115.9,135.6,115.4z"/>
	<path d="M118.1,68.7c-0.7,1.2-0.4,2.5,0.8,2.9c1.1,0.3,2.3-0.8,2.2-2c0-1.2-0.1-1.3-1.1-1.9C118.6,67.7,118.6,67.9,118.1,68.7"/>
	<path d="M106.5,61.8c-1,3.3-1.2,6.4-1.2,9.9c0,2.7,0.4,5.4,1.6,7.8c1.4,2.7,2.6,4.7,5.2,6.1c4.1,2.3,8.7,3.9,13.4,3.7
		c6-0.3,12.8-4.6,12.8-11.2c0-1.5-0.4-3.1-0.8-4.5c0.2,6-7.1,14-13.8,13c-5-0.8-8.7-1.2-11.9-5.1c-2.4-2.9-3.2-6.8-3.4-10.6
		c-0.2-3.6-0.2-6.1,0.8-10.4c0.6-2.6,1-2.3,1.9-4.8c0.9-2.2,2.7-7.3,3-9.6c-0.4,2.5-2.6,5.6-3.8,7.8C109,56.8,107.5,58.6,106.5,61.8
		z"/>
	<path d="M167.3,119.3c2.3,8,6.9,15.1,9.9,22.8c4.8,12.6,4.9,26.7,1.7,39.8c-3.1,13.1-9.4,25.3-16.9,36.5c-3.4,5-7.2,10-8.5,15.9
		c0.9-3.8,2.3-7.4,3.7-11.1c5-12.3,11.6-24,16-36.6c4.4-12.6,6.5-26.5,2.3-39.1c-3.7-11-12-20.3-13.8-31.7c-1-5.9,0-12,2.1-17.6
		c1.8-4.7,4.6-10.9,8.5-14.2c-0.2,1.8-1.5,3.7-2.2,5.4c-1.5,3.1-2.7,6.3-3.4,9.7C165.2,105.8,165.4,112.8,167.3,119.3z"/>
	<path d="M90,150.8c-2.3,14.4,0.2,29.4,5.6,42.9c4.3,10.8,10.5,21,19.4,28.5c2.4,2,5.2,4.4,5,7.5c-9.7-5.9-17.1-15.1-22.3-25.2
		c-5.1-10.1-8-16.5-10.1-27.7c-0.9-4.7-1.7-14.1-1.7-18.9c-0.2-18.2,9.9-33.6,24.6-43.5C98.9,122.2,92.1,137.5,90,150.8z"/>
</g>
</svg>
