<?xml version="1.0" encoding="utf-8"?>
<!-- Generator: Adobe Illustrator 22.0.1, SVG Export Plug-In . SVG Version: 6.00 Build 0)  -->
<svg version="1.1" id="Layer_1" xmlns="http://www.w3.org/2000/svg" xmlns:xlink="http://www.w3.org/1999/xlink" x="0px" y="0px"
	 viewBox="0 0 283.5 283.5" style="enable-background:new 0 0 283.5 283.5;" xml:space="preserve">
<style type="text/css">
	.st0{fill:#9A9495;}
	.st1{fill:#3D3839;}
	.st2{fill:none;stroke:#000000;stroke-miterlimit:10;}
	.st3{fill:#DEB8AC;}
	.st4{fill:#B3B3B3;}
	.st5{fill:#848484;}
	.st6{fill:#A09F9F;}
	.st7{fill:#C1C1BF;}
	.st8{fill:#D2D2D1;}
	.st9{fill:#686867;}
	.st10{fill:#FFFFFF;}
	.st11{fill:#E9E8EB;}
	.st12{fill:#ECEAE9;}
	.st13{fill:#D6D6D6;}
	.st14{fill:#060406;}
	.st15{fill:#2B1F2B;}
	.st16{fill:none;}
	.st17{fill:#221635;}
	.st18{fill:#C47669;}
	.st19{fill:#522D4C;}
	.st20{fill:#4F3552;}
	.st21{fill:#E3A7A0;}
	.st22{fill:#E2A1A6;}
	.st23{fill:#46092D;}
	.st24{fill:#974439;}
	.st25{fill:#9B5C47;}
	.st26{fill:#D49F8E;}
	.st27{fill:#D5A793;}
	.st28{fill:#E6C7B5;}
	.st29{fill:#6A3238;}
	.st30{fill:#4B1E33;}
	.st31{fill:#8C4544;}
	.st32{fill:#0F1B43;}
	.st33{fill:#DCB8A3;}
	.st34{fill:#E5C1B4;}
	.st35{fill:#CCABA0;}
	.st36{fill:#CB8C76;}
	.st37{fill:#AB554B;}
	.st38{fill:#0D1232;}
	.st39{fill:#121212;}
	.st40{fill:#212020;}
	.st41{fill:#DCDBDB;}
	.st42{fill:#AEACAB;}
	.st43{fill:#565555;}
	.st44{fill:#898989;}
</style>
<g>
	<path class="st43" d="M46.8,43.3v191h191v-191H46.8z M226.8,221.8H55.3V50.3h171.5V221.8z"/>
	<path class="st43" d="M68.7,139.7h75.6V64.1H68.7V139.7z M75.5,71.7h44.9v44.9H75.5V71.7z"/>
</g>
<g>
	<path class="st10" d="M185.4,58.1H63.1v122.3h122.3V58.1z M144.3,139.7H68.7V64.1h75.6V139.7z"/>
	<path class="st10" d="M120.4,71.7H75.5v44.9h44.9V71.7z M102.9,99.9H80.4V77.5h22.5V99.9z"/>
</g>
<g>
	<path d="M55.3,221.8h171.5V50.3H55.3V221.8z M63.1,58.1h122.3v122.3H63.1V58.1z"/>
	<rect x="80.4" y="77.5" width="22.5" height="22.5"/>
</g>
</svg>
